<svg xmlns="http://www.w3.org/2000/svg" viewBox="0 0 24 24" width="24" height="24">
  <path fill="#EA4335" d="M5.266 9.765A7.077 7.077 0 0 1 12 4.909c1.69 0 3.218.6 4.418 1.582L19.91 3C17.782 1.145 15.055 0 12 0 7.33 0 3.321 2.69 1.343 6.623l3.923 3.142z"/>
  <path fill="#4285F4" d="M24 12.273c0-.873-.077-1.718-.22-2.523H12v4.782h6.73A5.753 5.753 0 0 1 16.24 18.42l3.837 2.973C22.318 19.34 24 16.036 24 12.273z"/>
  <path fill="#FBBC05" d="M5.266 14.235A7.102 7.102 0 0 1 4.909 12c0-.79.13-1.554.357-2.265L1.343 6.623A11.966 11.966 0 0 0 0 12c0 1.927.456 3.746 1.264 5.378l4.002-3.143z"/>
  <path fill="#34A853" d="M12 24c3.24 0 5.955-1.073 7.94-2.91l-3.838-2.972c-1.063.713-2.427 1.137-4.102 1.137-3.155 0-5.83-2.132-6.784-5.006L1.264 17.39A11.97 11.97 0 0 0 12 24z"/>
</svg>
